PathFileType	4	(X/Y/Z)	Patient4_TMGait_0pt4_01_right_44.trc.trc
DataRate	CameraRate	NumFrames	NumMarkers	Units	OrigDataRate	OrigDataStartFrame	OrigNumFrames
75.268817204301	75.268817204301	4	33	mm	75.268817204301	71	       141
Frame#	Time	Sacral			L.Shoulder			Chest			R.Shoulder			Neck			R.ASIS			L.ASIS			R.Thigh.Superior			R.Thigh.Lateral			R.Thigh.Inferior			R.Patella			L.Thigh.Superior			L.Thigh.Lateral			L.Thigh.Inferior			L.Patella			L.Shank.Superior			L.Shank.Lateral			L.Shank.Inferior			R.Shank.Superior			R.Shank.Lateral			R.Shank.Inferior			R.Heel			R.Midfoot.Superior			R.Midfoot.Lateral			R.Toe			L.Heel			L.Midfoot.Lateral			L.Midfoot.Superior			L.Toe			L.Elbow			L.Wrist			R.Elbow			R.Wrist			
		X1	Y1	Z1	X2	Y2	Z2	X3	Y3	Z3	X4	Y4	Z4	X5	Y5	Z5	X6	Y6	Z6	X7	Y7	Z7	X8	Y8	Z8	X9	Y9	Z9	X10	Y10	Z10	X11	Y11	Z11	X12	Y12	Z12	X13	Y13	Z13	X14	Y14	Z14	X15	Y15	Z15	X16	Y16	Z16	X17	Y17	Z17	X18	Y18	Z18	X19	Y19	Z19	X20	Y20	Z20	X21	Y21	Z21	X22	Y22	Z22	X23	Y23	Z23	X24	Y24	Z24	X25	Y25	Z25	X26	Y26	Z26	X27	Y27	Z27	X28	Y28	Z28	X29	Y29	Z29	X30	Y30	Z30	X31	Y31	Z31	X32	Y32	Z32	X33	Y33	Z33	

71	58.450000000000	900.961310944483	1006.961861863933	549.139984214974	1064.740852168188	1428.696896702363	343.563287649189	1189.815354628903	1357.615372580597	487.027424699131	1137.094637542524	1434.897742414746	671.503807135686	1079.430216283644	1492.081775032337	498.915431920029	1138.903553348591	935.434192862948	635.868711076727	1091.784552725113	957.819478901505	365.136083010271	1141.014176018226	724.982207685507	611.491681048788	1046.090305265635	629.994338236763	683.078010373560	1105.029832779194	564.765973287570	600.704219137290	1089.372136763979	481.225422673111	609.934344062589	1160.354557032229	761.881250141170	386.992777546710	1091.258217302968	638.998348205463	319.296987428790	1194.230423875316	574.909183791142	372.009651945472	1209.361664495845	507.352971053365	370.711306985530	1190.356642278736	435.285851576206	359.603762669065	1112.813697812095	310.652333497077	312.062254018545	1194.641168631238	205.529888072167	363.970690561873	1052.199338948080	395.672005085558	620.636681687761	971.508479495075	302.138437551183	687.563273238209	1000.488378294263	201.792214323175	626.088726030177	853.050107800697	43.075479668677	598.976817989059	1023.067245669060	96.707794998461	638.602007497351	934.000582903265	36.893781636612	676.833781135552	1142.504476615027	44.069987622077	671.628580415249	1097.055565792952	37.415139518011	403.626452693763	1168.211627783687	37.849003160156	320.580490634765	1247.499600394430	105.726422343700	342.759014739231	1377.091286151227	62.263448565380	310.227738986418	967.465822145550	1090.776967737291	226.643382886254	1074.250009735051	855.167404907619	174.003001537058	1136.691116233643	1097.230370232963	815.661328226480	1278.852565110703	879.515073828405	804.018163570691	
72	58.463285714286	902.420346760368	1005.855359691506	546.381950996757	1064.328410394003	1427.581944518497	339.715753497168	1189.532727610058	1357.635766859111	483.635680606023	1135.922996663128	1434.964986852689	667.856070608332	1078.318660470214	1491.520577201349	494.974254836527	1140.542492332361	934.982604554661	633.513471276738	1093.614166446479	957.094080560460	362.856443093605	1142.265012144253	724.067928161079	609.402385031638	1046.803154121344	629.290197440291	680.993393330651	1105.289404562843	563.687747722403	598.742825394417	1089.008271779489	479.723319253102	608.007685170618	1161.854490421272	760.281247034924	385.001925192582	1091.854488131216	637.943366268825	317.695589813846	1194.410100754239	573.484099449525	370.876456548680	1208.501800833057	505.483991849642	369.892888353320	1189.334090218332	433.364153784105	358.757976302001	1110.953874535376	309.214978795633	311.295235011264	1191.474003580316	203.597533454346	363.985208997199	1050.761918022499	394.654817936264	619.062853048390	969.096711997515	302.366117147403	686.638625860281	996.644719478826	201.442119708516	625.432679710859	847.805003893341	43.474509994376	599.032703809684	1017.932168405966	96.732222272205	638.525408212771	928.770340460825	37.050042390838	676.793565954559	1137.249601793544	43.684350674969	671.671846371420	1091.393987793167	37.344900869950	403.955112576505	1162.603216077986	36.846491255707	320.864445777004	1243.158332362460	103.091853089175	343.512272214100	1372.171845562587	57.335079531946	311.011705670294	968.415401521701	1089.118523409624	223.382346352229	1074.606099202791	853.250589936627	170.852701054970	1133.514592761056	1096.896139324876	811.281305273967	1273.764121563344	877.975671718942	798.857951744628	
73	58.476571428571	903.830829567207	1004.903127175774	543.564230964723	1064.006384480509	1426.589077687789	335.848740627061	1189.317043927495	1357.728361932750	480.209796612876	1134.895837151018	1435.153910274432	664.169888948411	1077.309179544704	1491.078214254743	490.991439774277	1142.118277873597	934.603381975605	630.981092579814	1095.334905105328	956.677302823531	360.398745490004	1143.594604800463	723.269633045275	607.072472982223	1047.752214945577	628.648063701962	678.743740438486	1105.852759723796	562.696238500525	596.617834125770	1089.055023791645	478.177256624897	605.983686644565	1163.520331483117	759.275059906863	382.955180980969	1093.045217816351	637.357111834086	315.837644179893	1195.094536979501	572.530578380437	369.624467763972	1208.258432077221	504.096523691608	368.983718379668	1188.911947622272	431.860733047936	357.841605525046	1109.815110737724	308.272303082950	310.119769348407	1188.687142670911	202.107145487932	363.826984710186	1049.623417674376	393.687218202948	617.401795086291	966.884854664675	302.745337714810	685.609589168273	992.964731200384	201.208008461263	624.736679449571	842.605820586609	44.126061876921	599.098461746317	1012.891206699020	96.817888455506	638.451107758807	923.597992020694	37.347253871181	676.741302943675	1132.042484399351	43.225616274232	671.727703683368	1086.106446981346	37.463043645407	403.995159153420	1157.388829716791	36.230771652535	320.901487903696	1238.980335322468	101.093385612268	344.030084939814	1367.506061204148	53.474967465555	311.590858896608	969.760811470376	1087.533313522215	220.008910287447	1075.230020060286	851.317116914235	167.711201771426	1130.052889462512	1096.694127837771	806.807722661660	1268.245103855279	876.490424030561	793.651647195704	
74	58.489857142857	905.166604027649	1004.125726398117	540.671664013074	1063.741073743249	1425.759947956547	332.007614883554	1189.151880670327	1357.905984035286	476.770302111488	1134.033608596202	1435.478601841636	660.474572963037	1076.396982871248	1490.776228994089	487.013658394936	1143.596780665997	934.333006644622	628.268547502079	1096.924116158903	956.567057326481	357.732795649162	1144.934173610921	722.631482140739	604.509465014231	1048.891974946939	628.111717830377	676.356206477471	1106.711425221482	561.830867644234	594.375526219726	1089.542692101280	476.622409265904	603.942797106557	1165.381276515526	758.892364247009	380.830476831978	1094.790741054825	637.177663387173	313.801605315372	1196.273217104996	571.995876674229	368.243457880765	1208.609540688801	503.127078741720	368.032019557335	1189.031614400893	430.713921425140	356.936465355736	1109.280258447482	307.781551396391	308.666557774434	1186.148965367510	200.997078482811	363.588249337407	1048.792017285308	392.806864656324	615.704710231395	964.869190155743	303.306652838596	684.491493723786	989.467794427760	201.126335215467	624.027055449550	837.462903870055	45.099429389051	599.179668588395	1007.967158667423	96.972874542279	638.387035379772	918.491531950755	37.822778107312	676.684548355071	1126.890037030247	42.697461488879	671.799413585100	1081.074180967499	37.701213852625	403.834573058297	1152.433640654941	35.937400587611	320.769333703138	1234.826887551813	99.685162316605	344.362567091995	1362.962758697053	50.644973114948	311.970904708939	971.459429324406	1086.074645875716	216.547081786846	1076.152221834229	849.452110858890	164.593558111754	1126.360985692773	1096.650118716147	802.282999844879	1262.319146118008	875.073194169438	788.415570781198	
